<svg width="797" height="741" viewBox="0 0 797 741" fill="none" xmlns="http://www.w3.org/2000/svg">
<path d="M768.513 457.366L740.908 402.158L707.303 422.561C709.224 435.043 743.309 491.772 760.111 518.576L768.513 457.366Z" fill="#7F7F7F" stroke="#FEFEFE"/>
<path d="M703.703 318.145L668.897 330.147C671.778 339.749 693.301 389.356 703.703 412.96L736.108 393.757L703.703 318.145Z" fill="#7F7F7F" stroke="#FEFEFE"/>
<path d="M674.898 224.531H636.493C639.373 248.535 656.896 298.542 665.297 320.546L701.302 310.944L674.898 224.531Z" fill="#7F7F7F" stroke="#FEFEFE"/>
<path d="M660.496 147.719L615.777 105.354C616.737 133.198 628.091 190.126 634.092 214.93H673.698C665.057 183.245 661.296 156.921 660.496 147.719Z" fill="#7F7F7F"/>
<path d="M614.889 104.513L660.496 147.719C661.296 156.921 665.057 183.245 673.698 214.93H634.092C628.091 190.126 616.737 133.198 615.777 105.354" stroke="#FEFEFE"/>
<path d="M708.504 307.344C706.903 297.742 709.464 275.659 732.507 264.137C734.108 274.539 731.547 297.742 708.504 307.344Z" fill="#7F7F7F" stroke="#FEFEFE"/>
<path d="M712.104 315.745C720.905 312.144 741.629 309.504 754.111 327.747C745.309 331.347 724.586 333.988 712.104 315.745Z" fill="#7F7F7F" stroke="#FEFEFE"/>
<path d="M629.292 226.931C631.292 237.733 629.292 261.737 605.288 271.338C603.688 260.537 606.248 236.533 629.292 226.931Z" fill="#7F7F7F" stroke="#FEFEFE"/>
<path d="M628.091 219.73C625.291 209.329 609.608 189.246 569.282 192.126C571.683 201.728 586.805 220.691 628.091 219.73Z" fill="#7F7F7F" stroke="#FEFEFE"/>
<path d="M749.31 554.581C735.868 543.06 702.903 500.173 688.1 480.17C671.778 493.612 662.897 504.174 660.496 507.774C670.098 530.818 714.904 574.984 736.108 594.187C738.988 592.267 746.109 566.983 749.31 554.581Z" fill="#7F7F7F" stroke="#FEFEFE"/>
<path d="M683.3 472.969L624.491 384.155L593.286 408.159C597.127 422.561 635.692 474.969 654.495 499.373L683.3 472.969Z" fill="#7F7F7F" stroke="#FEFEFE"/>
<path d="M575.283 291.741L539.653 308.369C546.229 325.775 575.156 377.019 588.485 399.758L619.69 375.754L575.283 291.741Z" fill="#7F7F7F"/>
<path d="M539.278 308.544L575.283 291.741L619.69 375.754L588.485 399.758C574.883 376.554 545.039 323.666 539.278 307.344" stroke="#FEFEFE"/>
<path d="M539.278 208.929L502.072 215.905C504.953 229.347 526.076 277.739 535.677 298.942L571.683 282.14L539.278 208.929Z" fill="#7F7F7F"/>
<path d="M500.872 216.13L539.278 208.929L571.683 282.14L535.677 298.942C526.076 277.739 504.953 229.347 502.072 215.905" stroke="#FEFEFE"/>
<path d="M512.874 117.715H472.068C476.868 146.519 493.271 189.726 500.872 207.728C514.314 204.848 531.277 200.927 538.078 199.327C524.636 175.324 515.674 134.917 512.874 117.715Z" fill="#7F7F7F" stroke="#FEFEFE"/>
<path d="M492.471 34.9022L451.664 20.5C454.545 50.2645 465.667 92.1109 470.867 109.314H510.473L492.471 34.9022Z" fill="#7F7F7F" stroke="#FEFEFE"/>
<path d="M518.875 110.514C522.075 97.7118 537.598 72.828 574.083 75.7084C572.483 86.11 559.201 107.633 518.875 110.514Z" fill="#7F7F7F" stroke="#FEFEFE"/>
<path d="M491.271 211.329C488.07 202.128 474.228 185.645 444.463 193.326C447.264 201.728 460.546 217.09 491.271 211.329Z" fill="#7F7F7F" stroke="#FEFEFE"/>
<path d="M580.084 404.559C573.683 388.956 550.079 359.192 506.873 364.952C509.673 378.154 528.236 404.559 580.084 404.559Z" fill="#7F7F7F" stroke="#FEFEFE"/>
<path d="M581.284 412.96C568.882 414.56 543.599 425.202 541.678 454.966C553.28 453.766 577.444 443.684 581.284 412.96Z" fill="#7F7F7F" stroke="#FEFEFE"/>
<path d="M535.681 529.387C565.46 568.751 672.968 606.594 723 620.595C718.197 635.957 697.784 664.599 688.178 677L642.549 651.798L550.09 597.793C521.272 574.591 461.714 514.986 454.029 462.182C444.423 396.176 414.404 358.973 410.802 355.372C407.74 352.313 374.779 318.169 339.957 267.765C305.134 217.361 236.691 225.761 229.486 228.161C222.282 230.562 167.047 240.162 139.429 240.162C111.811 240.162 73.387 228.161 66.1824 220.961C60.4188 215.2 63.7809 212.96 66.1824 212.56C98.603 229.362 117.815 225.761 146.634 225.761C167.767 227.681 223.482 216.96 248.698 211.36C248.698 208.56 242.454 202.239 217.479 199.359C186.259 195.759 173.05 184.958 168.247 175.357C164.405 167.676 157.04 165.756 153.838 165.756C103.886 161.916 95.401 112.951 96.2016 88.9494C102.926 85.1091 103.406 87.3493 103.406 88.9494C109.17 138.874 139.029 150.555 153.838 150.155C143.031 139.354 145.433 78.1487 145.433 73.3483C145.433 69.5079 151.036 71.3479 153.838 72.148C153.838 78.1485 154.639 102.151 156.24 114.152C162.164 158.555 191.862 175.357 203.07 178.957C294.328 190.478 353.165 242.963 371.176 267.765C368.295 261.044 383.584 222.561 391.589 204.16C394.391 192.158 397.353 164.556 386.786 150.155C373.578 132.153 365.173 108.151 363.972 103.351C363.011 99.5105 362.771 92.1498 362.771 88.9495C365.653 87.0293 369.575 88.1494 371.176 88.9495C379.822 117.752 389.988 132.153 393.991 135.754C414.164 168.396 411.202 190.958 407.199 198.159C387.987 249.043 387.187 280.966 389.188 290.567C398.794 310.969 452.348 351.772 464.836 390.175C480.446 438.179 498.457 480.183 535.681 529.387Z" fill="#7F7F7F"/>
<path d="M398.856 370.953C395.256 382.155 392.375 404.078 409.658 402.158C431.261 399.758 410.858 372.154 398.856 370.953Z" fill="#DB241E"/>
<path d="M390.455 370.953C381.654 367.753 365.491 365.913 371.252 384.155C376.453 388.556 387.575 392.076 390.455 370.953Z" fill="#DB241E"/>
<path d="M390.455 362.552C389.255 348.15 383.014 323.186 367.652 338.548C361.251 344.149 356.85 356.791 390.455 362.552Z" fill="#DB241E"/>
<path d="M384.454 172.923C372.852 174.523 352.769 180.604 365.251 192.126C371.652 197.727 384.454 201.728 384.454 172.923Z" fill="#DB241E"/>
<path d="M380.854 164.522C378.853 157.321 372.452 145.079 362.851 153.72C360.851 158.921 361.651 168.363 380.854 164.522Z" fill="#DB241E"/>
<path d="M400.057 121.315C404.857 127.716 415.659 137.638 420.46 126.116C421.26 120.115 418.299 110.754 400.057 121.315Z" fill="#DB241E"/>
<path d="M404.857 88.9104C398.856 86.51 388.055 88.1903 392.856 114.114C404.057 108.513 422.14 95.6314 404.857 88.9104Z" fill="#DB241E"/>
<path d="M358.05 78.1086C354.45 69.3073 350.849 52.4247 365.251 55.3051C372.452 57.3055 381.094 64.6666 358.05 78.1086Z" fill="#DB241E"/>
<path d="M352.049 85.3098C350.049 75.3083 341.968 57.2255 325.645 64.9067C322.445 71.7077 323.245 85.3098 352.049 85.3098Z" fill="#DB241E"/>
<path d="M352.049 91.3108C351.249 100.512 346.528 116.515 334.046 106.913C318.444 94.9113 343.648 88.9104 352.049 91.3108Z" fill="#DB241E"/>
<path d="M52.0037 212.529C43.2024 216.93 29.4403 228.372 44.8027 238.933C51.6037 238.133 62.5654 231.732 52.0037 212.529Z" fill="#DB241E"/>
<path d="M46.0027 207.728C42.8023 200.927 34.721 190.926 28 205.328C28.8001 211.329 33.5208 220.21 46.0027 207.728Z" fill="#DB241E"/>
<path d="M52.0037 201.728C56.8045 193.326 63.0454 176.284 49.6034 175.324C43.2024 176.524 34.7211 183.485 52.0037 201.728Z" fill="#DB241E"/>
<path d="M59.2048 202.928C64.0055 191.326 76.0073 172.203 85.6088 188.525C89.6094 196.927 89.9294 211.569 59.2048 202.928Z" fill="#DB241E"/>
<path d="M91.6096 121.315C89.6093 114.114 82.9683 101.632 72.4067 109.313C71.2065 114.514 73.3669 124.196 91.6096 121.315Z" fill="#DB241E"/>
<path d="M95.2101 129.717C83.6083 130.517 63.0452 135.477 73.6068 148.92C79.2076 153.72 91.3694 156.601 95.2101 129.717Z" fill="#DB241E"/>
<path d="M168.421 91.3107C165.621 83.7095 163.141 68.9873 175.622 70.9076C181.623 72.9079 188.584 79.7889 168.421 91.3107Z" fill="#DB241E"/>
<path d="M208.027 244.934C200.026 246.934 186.184 253.335 194.825 262.937C200.426 264.137 210.908 262.217 208.027 244.934Z" fill="#DB241E"/>
<path d="M215.228 123.716C221.629 121.315 231.551 114.354 220.029 105.713C214.428 105.313 205.627 108.353 215.228 123.716Z" fill="#DB241E"/>
<path d="M218.829 130.917C227.23 124.516 244.273 116.275 245.233 134.517C245.233 142.119 239.952 152.04 218.829 130.917Z" fill="#DB241E"/>
<path d="M215.228 135.718C210.028 147.319 203.707 170.043 220.029 168.122C229.23 166.922 241.152 158.761 215.228 135.718Z" fill="#DB241E"/>
<path d="M208.027 136.918C198.026 133.717 179.223 130.917 184.024 145.319C187.224 152.52 196.506 160.921 208.027 136.918Z" fill="#DB241E"/>
<path d="M209.227 128.516C209.227 120.915 204.667 106.913 186.424 111.714C185.224 118.115 188.104 130.437 209.227 128.516Z" fill="#DB241E"/>
<path d="M283.932 259.677C277.531 260.477 266.409 264.238 273.13 272.879C277.931 276.079 286.812 277.92 283.932 259.677Z" fill="#DB241E"/>
<path d="M283.932 253.676C281.531 245.675 273.85 231.833 262.328 240.474C259.128 245.675 258.968 255.596 283.932 253.676Z" fill="#DB241E"/>
<path d="M291.133 259.677C300.334 261.677 316.817 268.078 309.136 277.68C303.135 281.28 291.133 282.72 291.133 259.677Z" fill="#DB241E"/>
</svg>
